<svg xmlns="http://www.w3.org/2000/svg" width="85" height="18" fill="none" xmlns:v="https://vecta.io/nano"><path d="M29.752 10.368l-.502 1.423h-.042c-.084-.321-.237-.809-.488-1.396l-2.693-6.768h-2.637v10.787h1.744V7.759l-.014-1.479-.056-.684h.042a6.51 6.51 0 0 0 .251.921l3.237 7.87h1.228l3.209-7.94c.07-.181.14-.544.209-.851h.042l-.084 1.94v6.838h1.856V3.6h-2.54l-2.763 6.768zm7.061-3.726h1.814v7.731h-1.814V6.642zm.921-3.265c-.307 0-.558.112-.767.307a.99.99 0 0 0-.321.754.98.98 0 0 0 .321.74c.209.195.461.293.767.293s.572-.112.767-.293a.98.98 0 0 0 .321-.74c0-.293-.112-.544-.321-.754-.181-.195-.447-.307-.767-.307zm7.326 3.196a5.06 5.06 0 0 0-1.019-.112c-.823 0-1.577.181-2.205.544s-1.13.865-1.451 1.493c-.335.642-.502 1.381-.502 2.233a4.14 4.14 0 0 0 .488 1.995c.321.586.768 1.061 1.367 1.381.572.321 1.242.488 1.995.488.865 0 1.605-.181 2.191-.516l.014-.014v-1.675l-.07.056c-.265.195-.572.363-.879.46-.321.112-.614.168-.865.168-.726 0-1.298-.209-1.702-.67-.419-.447-.628-1.061-.628-1.828 0-.795.209-1.423.642-1.884s1.005-.698 1.702-.698c.586 0 1.186.195 1.73.586l.07.056V6.865l-.014-.014c-.237-.098-.502-.209-.865-.279zm5.986-.056c-.447 0-.865.14-1.228.433-.307.251-.516.614-.698 1.047h-.014V6.642h-1.814v7.731h1.814v-3.949c0-.67.139-1.228.447-1.633.307-.419.698-.628 1.172-.628.168 0 .335.042.544.07.195.056.335.112.433.181l.07.056V6.656l-.042-.014c-.126-.084-.377-.126-.684-.126zm4.94-.042c-1.27 0-2.289.377-3 1.116-.726.74-1.075 1.758-1.075 3.042 0 1.2.363 2.177 1.061 2.888.698.698 1.647 1.061 2.833 1.061 1.242 0 2.233-.377 2.944-1.13.726-.754 1.074-1.758 1.074-3 0-1.228-.335-2.205-1.019-2.916-.656-.712-1.619-1.061-2.819-1.061zm1.451 5.945c-.335.433-.865.642-1.521.642s-1.186-.209-1.563-.67c-.377-.433-.558-1.061-.558-1.856 0-.823.195-1.451.558-1.898.377-.447.893-.67 1.549-.67.642 0 1.144.209 1.507.642s.558 1.061.558 1.884c-.028.837-.181 1.493-.53 1.926zm6.433-2.568c-.572-.237-.935-.419-1.102-.572-.139-.14-.209-.335-.209-.586 0-.209.084-.419.293-.558s.447-.209.795-.209c.307 0 .628.056.935.14s.586.209.809.377l.07.056V6.796l-.042-.014c-.209-.084-.488-.167-.823-.237-.335-.056-.642-.084-.893-.084-.865 0-1.577.209-2.135.67a2.06 2.06 0 0 0-.823 1.702c0 .363.056.684.181.949s.307.516.558.726c.251.195.614.419 1.116.628l.935.433c.195.112.321.237.419.335.07.112.112.251.112.433 0 .516-.391.768-1.186.768-.307 0-.628-.056-1.005-.181a3.88 3.88 0 0 1-1.019-.516l-.07-.056v1.772l.042.014c.265.126.586.209.977.307.391.07.74.126 1.047.126.935 0 1.702-.209 2.247-.67.558-.447.851-1.019.851-1.758 0-.516-.14-.977-.447-1.326a5.66 5.66 0 0 0-1.633-.963zm6.866-3.377c-1.27 0-2.289.377-3 1.116s-1.075 1.758-1.075 3.042c0 1.2.363 2.177 1.061 2.888.698.698 1.647 1.061 2.833 1.061 1.242 0 2.233-.377 2.944-1.13.726-.754 1.075-1.758 1.075-3 0-1.228-.335-2.205-1.019-2.916-.656-.712-1.619-1.061-2.819-1.061zm1.437 5.945c-.335.433-.865.642-1.521.642-.67 0-1.186-.209-1.563-.67-.377-.433-.558-1.061-.558-1.856 0-.823.195-1.451.558-1.898.377-.447.893-.67 1.549-.67.628 0 1.144.209 1.507.642s.558 1.061.558 1.884c0 .837-.181 1.493-.53 1.926zm12.099-4.284V6.642h-1.828V4.354l-.056.014-1.73.516-.042.014v1.744h-2.735v-.977c0-.447.112-.795.307-1.019s.488-.335.851-.335c.251 0 .516.056.809.181l.07.042V2.958l-.042-.014c-.251-.084-.586-.14-1.019-.14-.544 0-1.019.126-1.451.335a2.42 2.42 0 0 0-.991.991c-.237.419-.363.893-.363 1.437v1.074h-1.27v1.479h1.27v6.252h1.828V8.135h2.735v3.977c0 1.633.767 2.456 2.302 2.456.251 0 .516-.042.768-.084.265-.056.46-.126.572-.181l.014-.014v-1.493l-.07.056a1.18 1.18 0 0 1-.377.167 1.28 1.28 0 0 1-.363.056c-.363 0-.614-.084-.795-.293-.168-.195-.251-.516-.251-.991V8.135h1.856z" fill="#737373"/><path d="M0 0h8.554v8.554H0V0z" fill="#f25022"/><path d="M9.447 0h8.554v8.554H9.447V0z" fill="#7fba00"/><path d="M0 9.445h8.554v8.554H0V9.445z" fill="#00a4ef"/><path d="M9.447 9.445h8.554v8.554H9.447V9.445z" fill="#ffb900"/></svg>