<svg width="19" height="18" viewBox="0 0 19 18" fill="none" xmlns="http://www.w3.org/2000/svg">
<path fill-rule="evenodd" clip-rule="evenodd" d="M16.7266 8.52483C16.1564 10.8434 16.1937 13.0761 16.1254 15.4279C16.1121 15.8871 16.4729 16.269 16.9308 16.2828C17.3889 16.2966 17.7713 15.9342 17.7849 15.4749C17.8496 13.2449 17.7973 11.1228 18.3385 8.92049C18.448 8.47505 18.1755 8.02407 17.7306 7.91616C17.286 7.80549 16.8359 8.07939 16.7266 8.52483Z" fill="#201845"/>
<path fill-rule="evenodd" clip-rule="evenodd" d="M11.8762 4.03183C8.00769 7.56773 4.36278 12.1162 1.81515 16.709C1.59299 17.1102 1.73769 17.6166 2.13832 17.8379C2.53894 18.0592 3.0447 17.9154 3.26687 17.5142C5.73038 13.0736 9.25549 8.67441 12.9961 5.25748C13.3342 4.9476 13.3577 4.42192 13.0487 4.08438C12.7397 3.74684 12.2143 3.72195 11.8762 4.03183Z" fill="#201845"/>
<path fill-rule="evenodd" clip-rule="evenodd" d="M10.8995 0.170036C7.3614 -0.413748 3.71455 0.582269 0.497378 1.99054C0.0776623 2.17592 -0.113802 2.66562 0.069633 3.08339C0.253345 3.50394 0.743343 3.69486 1.16306 3.51225C4.09304 2.22848 7.40677 1.27671 10.6292 1.80793C11.0813 1.88263 11.5088 1.57553 11.5832 1.12455C11.6579 0.67357 11.3513 0.244738 10.8995 0.170036Z" fill="#201845"/>
</svg>
