<svg xmlns="http://www.w3.org/2000/svg" width="40" height="40" fill="#3996d2" fill-rule="evenodd" xmlns:v="https://vecta.io/nano"><path d="M1.664 7.501c0-1.841 1.492-3.333 3.333-3.333h30c1.841 0 3.333 1.492 3.333 3.333v25c0 1.841-1.492 3.333-3.333 3.333h-30c-1.841 0-3.333-1.492-3.333-3.333v-25zm33.333 0h-30v25h30v-25zm-20.869 6.037c.536.292.869.853.869 1.463v10c0 .921-.746 1.667-1.667 1.667s-1.667-.746-1.667-1.667V18.06l-.763.492c-.774.499-1.805.276-2.304-.497s-.276-1.805.497-2.304l3.333-2.15c.513-.331 1.165-.355 1.701-.063zm15.833 0c.536.292.869.853.869 1.463v10c0 .921-.746 1.667-1.667 1.667s-1.667-.746-1.667-1.667V18.06l-.763.492c-.774.499-1.805.276-2.304-.497s-.276-1.805.497-2.304l3.333-2.15c.513-.331 1.165-.355 1.701-.063zm-9.964 1.463c.921 0 1.667.746 1.667 1.667v.833c0 .921-.746 1.667-1.667 1.667s-1.667-.746-1.667-1.667v-.833c0-.92.746-1.667 1.667-1.667zm0 5.833c.921 0 1.667.746 1.667 1.667v.833c0 .921-.746 1.667-1.667 1.667s-1.667-.746-1.667-1.667v-.833c0-.921.746-1.667 1.667-1.667z"/><path d="M5 7.5h30v25H5v-25zm9.131 6.037c.536.292.869.853.869 1.463v10c0 .921-.746 1.667-1.667 1.667s-1.667-.746-1.667-1.667v-6.942l-.763.492c-.774.499-1.805.276-2.304-.497s-.276-1.805.497-2.304l3.333-2.15c.513-.331 1.165-.355 1.701-.063zm15.833 0c.536.292.869.853.869 1.463v10c0 .921-.746 1.667-1.667 1.667S27.5 25.921 27.5 25v-6.942l-.763.492c-.773.499-1.805.276-2.304-.497s-.276-1.805.497-2.304l3.333-2.15c.513-.331 1.165-.355 1.701-.063zM20 15c.921 0 1.667.746 1.667 1.667v.833c0 .921-.746 1.667-1.667 1.667s-1.667-.746-1.667-1.667v-.833c0-.92.746-1.667 1.667-1.667zm0 5.833c.921 0 1.667.746 1.667 1.667v.833c0 .92-.746 1.667-1.667 1.667s-1.667-.746-1.667-1.667V22.5c0-.921.746-1.667 1.667-1.667z" fill-opacity=".2"/></svg>