<svg xmlns="http://www.w3.org/2000/svg" width="40" height="40" fill="#3996d2" fill-rule="evenodd" xmlns:v="https://vecta.io/nano"><path d="M7.503 6.665c-.46 0-.833.373-.833.833v25c0 .46.373.833.833.833h25c.46 0 .833-.373.833-.833v-25c0-.46-.373-.833-.833-.833h-25zm-4.167.833a4.17 4.17 0 0 1 4.167-4.167h25a4.17 4.17 0 0 1 4.167 4.167v25a4.17 4.17 0 0 1-4.167 4.167h-25a4.17 4.17 0 0 1-4.167-4.167v-25zm20.987 9.167H21.67c-.921 0-1.667-.746-1.667-1.667s.746-1.667 1.667-1.667h6.667c.442 0 .866.176 1.178.488s.488.736.488 1.178v6.667c0 .92-.746 1.667-1.667 1.667s-1.667-.746-1.667-1.667v-2.632l-5.915 5.938c-.312.313-.736.49-1.178.49s-.867-.174-1.18-.487l-2.478-2.472-3.537 3.537c-.651.651-1.706.651-2.357 0s-.651-1.706 0-2.357l4.714-4.714c.65-.65 1.704-.651 2.356-.001l2.476 2.47 4.753-4.772z"/><path d="M6.664 7.501c0-.46.373-.833.833-.833h25c.46 0 .833.373.833.833v25c0 .46-.373.833-.833.833h-25c-.46 0-.833-.373-.833-.833v-25zm17.654 9.167h-2.654c-.921 0-1.667-.746-1.667-1.667s.746-1.667 1.667-1.667h6.667c.442 0 .866.176 1.178.488s.488.736.488 1.178v6.667c0 .92-.746 1.667-1.667 1.667s-1.667-.746-1.667-1.667v-2.632l-5.915 5.938c-.312.313-.736.49-1.178.49s-.867-.174-1.18-.487l-2.478-2.472-3.537 3.537c-.651.651-1.706.651-2.357 0s-.651-1.706 0-2.357l4.714-4.714c.65-.65 1.704-.651 2.356-.001l2.476 2.47 4.754-4.772z" fill-opacity=".2"/></svg>