<svg xmlns="http://www.w3.org/2000/svg" xmlns:xlink="http://www.w3.org/1999/xlink" width="40" height="40" fill="none" xmlns:v="https://vecta.io/nano"><g fill-rule="evenodd" fill="#3996d2"><use xlink:href="#B"/><use xlink:href="#B" x="16.667"/></g><path d="M10.349 22.501c-2.698 0-5.351 2.705-5.351 6.667v7.5a1.67 1.67 0 0 1-1.667 1.667c-.921 0-1.667-.746-1.667-1.667v-7.5c0-5.243 3.631-10 8.684-10h4.211c2.271 0 4.012 1.119 5.11 2.105a10.17 10.17 0 0 1 .316.297 10.18 10.18 0 0 1 .298-.285c1.071-.983 2.784-2.116 5.019-2.116h4.261c5.082 0 8.768 4.737 8.768 10v7.5a1.67 1.67 0 0 1-1.667 1.667c-.921 0-1.667-.746-1.667-1.667v-7.5c0-3.942-2.673-6.667-5.434-6.667h-4.261c-1.066 0-2.008.544-2.766 1.239-.368.337-.656.679-.85.934a5.57 5.57 0 0 0-.209.292c-.346.523-.825.89-1.48.89-.833-.022-1.236-.526-1.473-.875a5.75 5.75 0 0 0-.215-.295 7.22 7.22 0 0 0-.868-.935c-.771-.692-1.749-1.251-2.882-1.251h-4.211zm2.766 8.875c.652-.649.655-1.705.005-2.357s-1.705-.655-2.357-.005l-3.148 3.134c-.651.648-.655 1.7-.01 2.353l3.148 3.186c.647.655 1.702.661 2.357.014s.661-1.702.014-2.357l-.338-.342h14.957l-.364.376a1.67 1.67 0 0 0 .038 2.357 1.67 1.67 0 0 0 2.357-.038l3.099-3.202c.631-.652.624-1.69-.016-2.334l-3.099-3.118c-.649-.653-1.704-.656-2.357-.007s-.656 1.704-.007 2.357l.275.276H12.821l.293-.292z" fill="#3996d2"/><path d="M11.667 5A4.17 4.17 0 0 0 7.5 9.167a4.17 4.17 0 0 0 4.167 4.167 4.17 4.17 0 0 0 4.167-4.167A4.17 4.17 0 0 0 11.667 5zm16.667 0a4.17 4.17 0 0 0-4.167 4.167 4.17 4.17 0 0 0 4.167 4.167A4.17 4.17 0 0 0 32.5 9.167 4.17 4.17 0 0 0 28.334 5z" fill="#3996d2" fill-opacity=".2"/><defs ><path id="B" d="M11.664 1.668a7.5 7.5 0 1 0 0 15 7.5 7.5 0 1 0 0-15zm-4.167 7.5a4.17 4.17 0 0 1 4.167-4.167 4.17 4.17 0 0 1 4.167 4.167 4.17 4.17 0 0 1-4.167 4.167 4.17 4.17 0 0 1-4.167-4.167z"/></defs></svg>