<svg width="40" height="40" viewBox="0 0 40 40" fill="none" xmlns="http://www.w3.org/2000/svg">
<path fill-rule="evenodd" clip-rule="evenodd" d="M7.4974 5.83268C7.4974 4.91221 8.24359 4.16602 9.16406 4.16602H30.8307C31.7512 4.16602 32.4974 4.91221 32.4974 5.83268V7.49935H36.6641C37.5845 7.49935 38.3307 8.24554 38.3307 9.16602V30.8327C38.3307 31.7532 37.5845 32.4993 36.6641 32.4993H32.4974V34.166C32.4974 35.0865 31.7512 35.8327 30.8307 35.8327H9.16406C8.24359 35.8327 7.4974 35.0865 7.4974 34.166V32.4993H3.33073C2.41025 32.4993 1.66406 31.7532 1.66406 30.8327V9.16602C1.66406 8.24554 2.41025 7.49935 3.33073 7.49935H7.4974V5.83268ZM10.8307 32.4993H29.1641V7.49935H10.8307V32.4993ZM7.4974 10.8327H4.9974V29.166H7.4974V10.8327ZM32.4974 29.166H34.9974V10.8327H32.4974V29.166ZM17.5443 15.1966C18.0862 14.9065 18.7438 14.9383 19.2552 15.2793L24.2552 18.6126C24.7189 18.9217 24.9974 19.4421 24.9974 19.9993C24.9974 20.5566 24.7189 21.077 24.2552 21.3861L19.2552 24.7194C18.7438 25.0604 18.0862 25.0922 17.5443 24.8021C17.0024 24.5121 16.6641 23.9473 16.6641 23.3327V16.666C16.6641 16.0514 17.0024 15.4866 17.5443 15.1966ZM19.9974 19.7802V20.2185L20.3261 19.9993L19.9974 19.7802Z" fill="#3996D2"/>
<path d="M5 10.8333H7.5V29.1667H5V10.8333Z" fill="#3996D2" fill-opacity="0.2"/>
<path fill-rule="evenodd" clip-rule="evenodd" d="M29.1667 32.5H10.8333V7.5H29.1667V32.5ZM17.5469 15.1972C18.0888 14.9072 18.7464 14.939 19.2578 15.2799L24.2578 18.6132C24.7215 18.9224 25 19.4427 25 20C25 20.5573 24.7215 21.0776 24.2578 21.3868L19.2578 24.7201C18.7464 25.061 18.0888 25.0928 17.5469 24.8028C17.005 24.5128 16.6667 23.948 16.6667 23.3333V16.6667C16.6667 16.052 17.005 15.4872 17.5469 15.1972Z" fill="#3996D2" fill-opacity="0.2"/>
<path d="M35 29.1667H32.5V10.8333H35V29.1667Z" fill="#3996D2" fill-opacity="0.2"/>
<path d="M20 20.2191V19.7809L20.3287 20L20 20.2191Z" fill="#3996D2" fill-opacity="0.2"/>
</svg>
