<svg width="84" height="68" viewBox="0 0 84 68" fill="none" xmlns="http://www.w3.org/2000/svg">
<path d="M7.37672 10.218C13.2226 3.88047 22.0684 0.667969 33.6642 0.667969H37.8309V12.4138L34.4809 13.0846C28.7726 14.2263 24.8017 16.4721 22.6767 19.768C21.5679 21.5435 20.9391 23.5765 20.8517 25.668H33.6642C34.7693 25.668 35.8291 26.107 36.6105 26.8884C37.3919 27.6698 37.8309 28.7296 37.8309 29.8346V59.0013C37.8309 63.5971 34.0934 67.3346 29.4976 67.3346H4.49755C3.39248 67.3346 2.33268 66.8956 1.55128 66.1142C0.769874 65.3328 0.330887 64.273 0.330887 63.168V42.3346L0.343387 30.1721C0.305887 29.7096 -0.48578 18.7513 7.37672 10.218ZM75.3309 67.3346H50.3309C49.2258 67.3346 48.166 66.8956 47.3846 66.1142C46.6032 65.3328 46.1642 64.273 46.1642 63.168V42.3346L46.1767 30.1721C46.1392 29.7096 45.3476 18.7513 53.2101 10.218C59.0559 3.88047 67.9017 0.667969 79.4976 0.667969H83.6642V12.4138L80.3142 13.0846C74.6059 14.2263 70.6351 16.4721 68.5101 19.768C67.4013 21.5435 66.7724 23.5765 66.6851 25.668H79.4976C80.6026 25.668 81.6624 26.107 82.4438 26.8884C83.2252 27.6698 83.6642 28.7296 83.6642 29.8346V59.0013C83.6642 63.5971 79.9267 67.3346 75.3309 67.3346Z" fill="#3996D2" fill-opacity="0.8"/>
</svg>
