<svg width="18" height="20" viewBox="0 0 18 20" fill="none" xmlns="http://www.w3.org/2000/svg">
<path fill-rule="evenodd" clip-rule="evenodd" d="M8.8735 4.12536C8.88543 3.81535 8.9091 3.51133 8.94623 3.21008C9.00177 2.75817 9.11791 2.31534 9.19734 1.86841C9.23089 1.67877 9.3107 1.18277 9.33451 1.11399C9.54527 0.51535 10.0619 0.524674 10.2108 0.538139C10.2832 0.542697 11.0222 0.612438 11.0112 1.4458C10.9983 2.46488 10.8541 3.46362 10.5852 4.41532C10.5719 5.2693 10.6715 6.14324 10.8736 6.95782C11.6781 10.1978 14.3207 11.0469 17.254 11.6299C17.7057 11.717 18.0059 12.1483 17.9362 12.6007C17.8658 13.0566 17.4493 13.3771 16.9927 13.3241C15.3233 13.1413 12.1463 13.8487 10.8578 15.0058C10.5883 15.2481 10.3224 15.9125 10.0199 16.5553C9.59883 17.4471 9.13712 18.32 8.75528 18.6478C8.69757 18.699 8.02036 19.2039 7.83789 19.2607C7.39996 19.3942 7.11128 19.2041 6.95643 19.0525C6.80158 18.9008 6.64631 18.6332 6.64338 18.2428C6.64024 17.8349 6.87846 17.0488 6.9011 16.8745C6.98303 16.242 7.11305 14.9945 7.07774 13.8916C7.05857 13.2978 7.0212 12.7457 6.83357 12.4363C6.13894 11.2908 4.67931 11.1342 3.44197 11.0414C3.30016 11.0294 3.15765 11.0208 3.01617 11.0089C2.49572 11.0514 1.95269 11.0506 1.38916 10.9999C0.537979 10.9244 0.560526 10.132 0.56364 10.08C0.571299 9.96574 0.632943 9.38169 1.30687 9.28335C1.38009 9.27403 1.90734 9.268 2.11062 9.26471C2.3938 9.26051 2.67719 9.27042 2.9609 9.28389C5.98108 8.99322 8.0377 6.83745 8.8735 4.12536ZM9.20968 7.38715C9.81911 9.82452 11.2212 11.2332 13.0464 12.1191L13.0461 12.1191C11.7123 12.4977 10.4542 13.0573 9.70958 13.7273C9.4271 13.9809 9.09969 14.5412 8.7767 15.1796C8.80922 14.5298 8.8155 13.8324 8.7587 13.2236C8.6945 12.5291 8.53782 11.9311 8.30429 11.5454C7.85318 10.8018 7.19651 10.3034 6.44853 9.96843C7.55991 9.33272 8.48727 8.44449 9.20968 7.38715Z" fill="#3996D2"/>
</svg>
