<svg width="34" height="38" viewBox="0 0 34 38" fill="none" xmlns="http://www.w3.org/2000/svg">
<path fill-rule="evenodd" clip-rule="evenodd" d="M17.0028 4.0013C14.2414 4.0013 12.0028 6.23988 12.0028 9.0013C12.0028 11.7627 14.2414 14.0013 17.0028 14.0013C19.7643 14.0013 22.0028 11.7627 22.0028 9.0013C22.0028 6.23988 19.7643 4.0013 17.0028 4.0013ZM8.66952 9.0013C8.66952 4.39893 12.4005 0.667969 17.0028 0.667969C21.6052 0.667969 25.3362 4.39893 25.3362 9.0013C25.3362 13.6037 21.6052 17.3346 17.0028 17.3346C12.4005 17.3346 8.66952 13.6037 8.66952 9.0013ZM0.336182 35.668C0.336182 26.4632 7.79812 19.0013 17.0028 19.0013C26.2076 19.0013 33.6695 26.4632 33.6695 35.668C33.6695 36.5884 32.9233 37.3346 32.0028 37.3346C31.0824 37.3346 30.3362 36.5884 30.3362 35.668C30.3362 29.095 25.5799 23.6328 19.3212 22.5355L21.9291 31.0112C22.0914 31.5384 21.9822 32.1117 21.6376 32.5425L18.3043 36.7091C17.988 37.1045 17.5092 37.3346 17.0028 37.3346C16.4965 37.3346 16.0177 37.1045 15.7014 36.7091L12.3681 32.5425C12.0235 32.1117 11.9143 31.5384 12.0766 31.0112L14.6844 22.5355C8.42582 23.6328 3.66952 29.095 3.66952 35.668C3.66952 36.5884 2.92332 37.3346 2.00285 37.3346C1.08237 37.3346 0.336182 36.5884 0.336182 35.668ZM17.0028 26.3352L15.5218 31.1487L17.0028 33L18.4839 31.1487L17.0028 26.3352Z" fill="#3996D2"/>
</svg>
