<svg xmlns="http://www.w3.org/2000/svg" width="40" height="40" fill="#3996d2" xmlns:v="https://vecta.io/nano"><path fill-rule="evenodd" d="M20.003 5.001a5 5 0 1 0 0 10 5 5 0 1 0 0-10zm-8.333 5c0-4.602 3.731-8.333 8.333-8.333s8.333 3.731 8.333 8.333-3.731 8.333-8.333 8.333-8.333-3.731-8.333-8.333zM3.336 36.668a16.67 16.67 0 0 1 16.667-16.667 16.67 16.67 0 0 1 16.667 16.667c0 .92-.746 1.667-1.667 1.667s-1.667-.746-1.667-1.667a13.34 13.34 0 0 0-11.015-13.132l2.608 8.476c.162.527.053 1.1-.291 1.531l-3.333 4.167c-.316.395-.795.626-1.301.626s-.985-.23-1.301-.626l-3.333-4.167c-.345-.431-.454-1.004-.292-1.531l2.608-8.476A13.34 13.34 0 0 0 6.669 36.668c0 .92-.746 1.667-1.667 1.667s-1.667-.746-1.667-1.667zm16.667-9.333l-1.481 4.813L20.003 34l1.481-1.851-1.481-4.813z"/><path d="M15 10a5 5 0 1 1 10 0 5 5 0 1 1-10 0z" fill-opacity=".2"/></svg>