<svg width="11" height="14" viewBox="0 0 11 14" fill="none" xmlns="http://www.w3.org/2000/svg">
<path d="M0.75781 12.1287H9.85431C10.0464 12.1287 10.2312 12.2017 10.3716 12.3328C10.5119 12.4639 10.5973 12.6434 10.6104 12.835C10.6234 13.0266 10.5633 13.2161 10.4421 13.3651C10.3209 13.5141 10.1477 13.6115 9.9574 13.6377L9.85431 13.6447H0.75781C0.565749 13.6447 0.380871 13.5717 0.240531 13.4406C0.100192 13.3095 0.014855 13.13 0.0017641 12.9384C-0.0113268 12.7468 0.0488042 12.5573 0.170007 12.4083C0.29121 12.2593 0.464448 12.1619 0.654716 12.1357L0.75781 12.1287H9.85431H0.75781ZM5.20296 0.00707502L5.30606 0C5.48924 7.72484e-06 5.66622 0.0663466 5.80427 0.186748C5.94233 0.30715 6.03211 0.473469 6.05702 0.654948L6.0641 0.758041V8.52847L8.34328 6.2503C8.47181 6.12181 8.64224 6.04377 8.82349 6.03042C9.00475 6.01706 9.18477 6.06927 9.33075 6.17753L9.41565 6.2503C9.54414 6.37884 9.62218 6.54926 9.63554 6.73052C9.6489 6.91177 9.59669 7.09179 9.48842 7.23778L9.41565 7.32268L5.84174 10.8956C5.71339 11.024 5.54323 11.102 5.3622 11.1156C5.18117 11.1291 5.00129 11.0772 4.85528 10.9694L4.77037 10.8956L1.19646 7.32268C1.06083 7.18742 0.981435 7.00583 0.974237 6.81441C0.967039 6.623 1.03257 6.43596 1.15766 6.29089C1.28275 6.14583 1.45813 6.0535 1.64852 6.03247C1.83891 6.01144 2.0302 6.06327 2.18394 6.17753L2.26884 6.2503L4.54802 8.53049V0.758041C4.54802 0.574861 4.61436 0.397879 4.73476 0.259826C4.85517 0.121773 5.02148 0.0319876 5.20296 0.00707502L5.30606 0L5.20296 0.00707502Z" fill="#3996D2"/>
</svg>
