<svg xmlns="http://www.w3.org/2000/svg" width="38" height="33" fill="#3996d2" fill-rule="evenodd" xmlns:v="https://vecta.io/nano"><path d="M23.575 14.45a5.81 5.81 0 0 0 1.256-3.616C24.831 7.612 22.219 5 18.998 5s-5.833 2.612-5.833 5.833a5.81 5.81 0 0 0 1.256 3.616c-2.697 1.411-4.589 4.043-4.589 7.217a1.67 1.67 0 0 0 1.667 1.667c.921 0 1.667-.746 1.667-1.667 0-2.582 2.422-5 5.833-5s5.833 2.418 5.833 5a1.67 1.67 0 0 0 1.667 1.667c.921 0 1.667-.746 1.667-1.667 0-3.174-1.892-5.806-4.589-7.217zm-4.578-6.116a2.5 2.5 0 0 0 0 5 2.5 2.5 0 0 0 0-5zM.664 1.667A1.67 1.67 0 0 1 2.331 0h33.333c.921 0 1.667.746 1.667 1.667v25a1.67 1.67 0 0 1-1.667 1.667h-11.81l-3.679 3.678c-.651.651-1.706.651-2.357 0l-3.678-3.678H2.331a1.67 1.67 0 0 1-1.667-1.667v-25zm3.333 1.667V25H14.83c.442 0 .866.176 1.178.488l2.988 2.988 2.988-2.988c.313-.313.736-.488 1.178-.488h10.833V3.333h-30z"/></svg>