<svg xmlns="http://www.w3.org/2000/svg" width="40" height="40" fill="#3996d2" xmlns:v="https://vecta.io/nano"><path d="M29.169 18.334c3.222 0 5.833 2.612 5.833 5.833 0 1.676-.707 3.186-1.838 4.25a9.16 9.16 0 0 1 5.171 8.249c0 .921-.746 1.667-1.667 1.667h-15c-.921 0-1.667-.746-1.667-1.667 0-3.631 2.111-6.768 5.172-8.253a5.8 5.8 0 0 1-1.839-4.247c0-3.222 2.612-5.833 5.833-5.833zM5.003 25.001c.855 0 1.559.643 1.655 1.472l.011.194v5a1.67 1.67 0 0 0 1.472 1.656l.194.011h5a1.67 1.67 0 0 1 1.667 1.667c0 .855-.643 1.559-1.472 1.655l-.194.011h-5a5 5 0 0 1-4.992-4.706l-.008-.294v-5c0-.921.746-1.667 1.667-1.667zm24.167 5.833c-2.577 0-4.764 1.671-5.536 3.99l-.054.177h11.178l-.052-.177c-.739-2.222-2.779-3.849-5.216-3.981l-.32-.009zm0-9.167a2.5 2.5 0 1 0 0 5 2.5 2.5 0 1 0 0-5zm2.5-18.333a5 5 0 0 1 4.992 4.706l.008.294v5c0 .921-.746 1.667-1.667 1.667a1.67 1.67 0 0 1-1.656-1.472l-.011-.194v-5c0-.855-.643-1.559-1.472-1.655l-.194-.011h-5c-.921 0-1.667-.746-1.667-1.667 0-.855.643-1.559 1.472-1.655l.194-.011h5zM10.831 1.666c3.222 0 5.833 2.612 5.833 5.833 0 1.676-.707 3.186-1.838 4.25a9.16 9.16 0 0 1 5.171 8.25 1.67 1.67 0 0 1-1.667 1.667h-15a1.67 1.67 0 0 1-1.667-1.667c0-3.631 2.111-6.769 5.172-8.253a5.8 5.8 0 0 1-1.839-4.247c0-3.222 2.612-5.833 5.833-5.833zm0 12.5c-2.577 0-4.764 1.672-5.536 3.99l-.054.177h11.178l-.052-.177a5.84 5.84 0 0 0-5.216-3.981l-.32-.009zm0-9.167a2.5 2.5 0 1 0 0 5 2.5 2.5 0 1 0 0-5z"/><path d="M29.168 21.666a2.5 2.5 0 1 0 0 5 2.5 2.5 0 1 0 0-5zm0 9.167c-2.577 0-4.764 1.671-5.536 3.99l-.054.177h11.178l-.052-.177a5.84 5.84 0 0 0-5.216-3.981l-.32-.009zM10.84 5a2.5 2.5 0 1 0 0 5 2.5 2.5 0 1 0 0-5zm0 9.167c-2.577 0-4.764 1.671-5.536 3.989l-.054.177h11.178l-.052-.177a5.84 5.84 0 0 0-5.216-3.981l-.32-.009z" fill-opacity=".2"/></svg>